<?xml version="1.0" encoding="UTF-8" standalone="no"?>
<svg
   xmlns:dc="http://purl.org/dc/elements/1.1/"
   xmlns:cc="http://creativecommons.org/ns#"
   xmlns:rdf="http://www.w3.org/1999/02/22-rdf-syntax-ns#"
   xmlns:svg="http://www.w3.org/2000/svg"
   xmlns="http://www.w3.org/2000/svg"
   xmlns:xlink="http://www.w3.org/1999/xlink"
   xmlns:sodipodi="http://sodipodi.sourceforge.net/DTD/sodipodi-0.dtd"
   xmlns:inkscape="http://www.inkscape.org/namespaces/inkscape"
   version="1.1"
   id="svg4810"
   xml:space="preserve"
   width="230"
   height="120"
   viewBox="0 0 230 120"
   sodipodi:docname="bmbf.svg"
   inkscape:version="1.0.1 (3bc2e813f5, 2020-09-07)"
   inkscape:export-filename="/home/bone/opera/bmbf-logo/official/BMBF_gefördert vom_deutsch.png"
   inkscape:export-xdpi="280"
   inkscape:export-ydpi="280">
   <style type="text/css">
    <![CDATA[
	    .st2{fill:#d8e2ef;}/*dark-mode*/
    ]]>
   </style>
   <metadata
     id="metadata4816"><rdf:RDF><cc:Work
         rdf:about=""><dc:format>image/svg+xml</dc:format><dc:type
           rdf:resource="http://purl.org/dc/dcmitype/StillImage" /><dc:title></dc:title></cc:Work></rdf:RDF></metadata><defs
     id="defs4814" /><sodipodi:namedview
     pagecolor="#ffffff"
     bordercolor="#666666"
     borderopacity="1"
     objecttolerance="10"
     gridtolerance="10"
     guidetolerance="10"
     inkscape:pageopacity="0"
     inkscape:pageshadow="2"
     inkscape:window-width="1920"
     inkscape:window-height="1137"
     id="namedview4812"
     showgrid="false"
     inkscape:snap-bbox="true"
     inkscape:bbox-paths="true"
     inkscape:bbox-nodes="true"
     inkscape:snap-bbox-edge-midpoints="true"
     fit-margin-top="0"
     fit-margin-left="0"
     fit-margin-right="0"
     fit-margin-bottom="0"
     inkscape:zoom="1.0956113"
     inkscape:cx="157.55163"
     inkscape:cy="141.95933"
     inkscape:window-x="-8"
     inkscape:window-y="-8"
     inkscape:window-maximized="1"
     inkscape:current-layer="g4818"
     inkscape:document-rotation="0" /><g
     id="g4818"
     inkscape:groupmode="layer"
     inkscape:label="Bildwortmarke mit Fz"
     transform="matrix(1.3333333,0,0,-1.3333333,9.8514611,153.66645)"><g
       inkscape:groupmode="layer"
       id="layer2"
       inkscape:label="Schutzzone"
       style="display:none"><g
         id="g4798"><use
           height="100%"
           width="100%"
           transform="translate(-1.0613497,2.8278452)"
           id="use9796"
           xlink:href="#path4830"
           y="0"
           x="0" /><use
           height="100%"
           width="100%"
           transform="translate(53.505425,24.853141)"
           id="use9798"
           xlink:href="#use4878"
           y="0"
           x="0" /><use
           height="100%"
           width="100%"
           transform="translate(43.152153,-60.060825)"
           id="use9800"
           xlink:href="#use4878"
           y="0"
           x="0" /><use
           height="100%"
           width="100%"
           transform="translate(148.377,3.4295442)"
           id="use9802"
           xlink:href="#use4878"
           y="0"
           x="0" /></g></g><path
       inkscape:connector-curvature="0"
       id="path4824" class="st2"
       style="fill-opacity:1;fill-rule:nonzero;stroke:none;stroke-width:0.112316"
       d="m 135.71396,72.297491 c 0,0.5791 -0.13593,0.989276 -0.40883,1.234574 -0.27405,0.245634 -0.59191,0.368058 -0.96142,0.368058 -0.38861,0 -0.72444,-0.122417 -1.00074,-0.368058 -0.27853,-0.245298 -0.41781,-0.655474 -0.41781,-1.234574 0,-0.579211 0.13928,-0.991523 0.41781,-1.235022 0.2763,-0.246646 0.60202,-0.367273 0.96704,-0.367273 0.38974,0 0.72107,0.120623 0.99512,0.367273 0.27293,0.243499 0.40883,0.655811 0.40883,1.235022 z m -1.78694,-5.271422 c -0.23586,0 -0.43916,0.01539 -0.61774,0.0483 -0.10112,-0.05357 -0.19992,-0.120622 -0.29201,-0.199696 -0.0954,-0.07896 -0.17972,-0.173303 -0.25833,-0.283822 -0.0786,-0.109735 -0.14265,-0.2435 -0.19319,-0.391756 -0.0505,-0.151402 -0.0741,-0.326839 -0.0741,-0.525189 0,-0.858989 0.47172,-1.2868 1.41855,-1.2868 0.81316,0 1.41068,0.160162 1.80378,0.477342 0.3875,0.316729 0.58292,0.680856 0.58292,1.092494 0,0.388275 -0.12016,0.663336 -0.36952,0.826981 -0.24486,0.160948 -0.57056,0.242151 -0.98388,0.242151 z m 3.71989,6.707377 h -1.00073 c 0.25608,-0.423429 0.38412,-0.900771 0.38412,-1.435955 0,-0.423879 -0.0685,-0.803843 -0.20779,-1.143823 -0.14038,-0.339979 -0.3347,-0.626496 -0.58291,-0.858989 -0.25271,-0.235639 -0.54697,-0.412423 -0.88618,-0.533948 -0.33693,-0.12288 -0.70197,-0.185658 -1.09282,-0.185658 -0.0774,0 -0.15051,0 -0.21789,0 -0.0674,0 -0.13816,0.008 -0.21453,0.01977 -0.13702,-0.05919 -0.27405,-0.145673 -0.41894,-0.269781 -0.14375,-0.120623 -0.21564,-0.281689 -0.21564,-0.481274 0,-0.168023 0.0617,-0.301904 0.19093,-0.411524 0.12696,-0.101864 0.33583,-0.156679 0.62559,-0.156679 h 1.01646 c 0.37851,0 0.73119,-0.03863 1.0524,-0.118489 0.32235,-0.07457 0.60315,-0.198685 0.84462,-0.372886 0.23811,-0.172405 0.42456,-0.391758 0.55709,-0.658058 0.13362,-0.268996 0.20328,-0.591455 0.20328,-0.968723 0,-0.433089 -0.0933,-0.829227 -0.27517,-1.185493 -0.18531,-0.356713 -0.44476,-0.660302 -0.77834,-0.91919 -0.33358,-0.253496 -0.73904,-0.455328 -1.21863,-0.600103 -0.47958,-0.143539 -1.01196,-0.21587 -1.6005,-0.21587 -0.85809,0 -1.50839,0.187342 -1.95428,0.560231 -0.44478,0.369855 -0.66717,0.907286 -0.66717,1.60791 0,0.299658 0.0516,0.560793 0.15725,0.776663 0.10453,0.217106 0.23138,0.405797 0.37626,0.568092 0.14375,0.162296 0.29315,0.288651 0.44252,0.383895 0.14938,0.0921 0.26956,0.171169 0.35716,0.223734 v 0.03515 c -0.34481,0.255742 -0.51552,0.627395 -0.51552,1.117877 0,0.210593 0.0403,0.393555 0.12573,0.550572 0.0831,0.154435 0.17745,0.280789 0.28304,0.382547 0.1044,0.100068 0.21115,0.181278 0.31673,0.242714 0.10671,0.06009 0.18644,0.103101 0.24035,0.123667 v 0.03425 c -0.40995,0.18869 -0.74015,0.487001 -0.99175,0.891449 -0.24933,0.40591 -0.37401,0.927053 -0.37401,1.561973 0,0.445669 0.0719,0.837988 0.21677,1.175721 0.14377,0.340092 0.33808,0.622116 0.58293,0.843716 0.24709,0.222047 0.53236,0.388724 0.86033,0.50059 0.32797,0.110184 0.68176,0.167575 1.05689,0.167575 0.383,0 0.73791,-0.0675 1.06925,-0.200035 h 2.43836 z m -9.10992,-6.958289 v 5.155961 c 0,0.677825 -0.11566,1.164826 -0.34256,1.460553 -0.22801,0.294378 -0.57505,0.4414 -1.04228,0.4414 -0.40209,0 -0.73568,-0.09962 -1.00299,-0.301006 -0.26731,-0.199697 -0.47734,-0.394453 -0.63458,-0.58348 v -6.173428 h -1.35228 v 8.009901 h 1.23547 v -0.902456 h 0.0348 c 0.0314,0.06795 0.10453,0.164543 0.21789,0.291796 0.10901,0.12939 0.25496,0.251812 0.43355,0.368059 0.17858,0.116694 0.38749,0.219802 0.63345,0.308419 0.24485,0.08998 0.52339,0.134215 0.8345,0.134215 0.35717,0 0.67952,-0.05391 0.96817,-0.157466 0.28865,-0.10703 0.53351,-0.277757 0.73567,-0.5107 0.19766,-0.233841 0.35379,-0.536982 0.46611,-0.910319 0.11011,-0.371202 0.1651,-0.831472 0.1651,-1.377664 v -5.253785 z m -6.4413,0 h -1.23435 v 0.900209 h -0.0359 c -0.0326,-0.06582 -0.10562,-0.164542 -0.21566,-0.290449 -0.11118,-0.130736 -0.2527,-0.251362 -0.4268,-0.367609 -0.17296,-0.117142 -0.37962,-0.221598 -0.62671,-0.309317 -0.24374,-0.08998 -0.51665,-0.134664 -0.81653,-0.134664 -0.35717,0 -0.67389,0.05268 -0.96031,0.160163 -0.2819,0.106133 -0.52788,0.275061 -0.72556,0.508903 -0.19879,0.234738 -0.35266,0.536082 -0.45937,0.906835 -0.10562,0.372888 -0.15724,0.831361 -0.15724,1.376766 v 5.259066 h 1.35004 v -5.158207 c 0,-0.669064 0.1101,-1.142024 0.32571,-1.424948 0.2179,-0.283036 0.55596,-0.425564 1.00971,-0.425564 0.39087,0 0.71995,0.09648 0.98501,0.291683 0.26845,0.194418 0.4796,0.383109 0.63458,0.573933 v 6.143103 h 1.35341 z m -8.98076,0 v 5.155961 c 0,0.677825 -0.11349,1.164826 -0.34031,1.460553 -0.23025,0.294378 -0.57842,0.4414 -1.04454,0.4414 -0.40096,0 -0.73231,-0.09962 -1.00186,-0.301006 -0.26506,-0.199697 -0.47621,-0.394453 -0.63346,-0.58348 v -6.173428 h -1.35115 v 11.797521 l 1.35115,0.150055 V 73.96639 h 0.0337 c 0.046,0.06627 0.1146,0.15668 0.21003,0.267648 0.0932,0.110524 0.22351,0.221936 0.38973,0.332566 0.16736,0.110973 0.37177,0.208795 0.60988,0.293931 0.24149,0.08379 0.52114,0.124551 0.84461,0.124551 0.70085,0 1.25569,-0.228563 1.66677,-0.68479 0.4122,-0.458023 0.61885,-1.21357 0.61885,-2.271359 v -5.25378 z m -6.35707,6.456351 c -0.0325,0.03291 -0.0865,0.08513 -0.15836,0.152301 -0.0719,0.06492 -0.16398,0.132421 -0.27629,0.198685 -0.11233,0.06582 -0.24373,0.125461 -0.40209,0.17555 -0.15276,0.04954 -0.33134,0.07504 -0.53126,0.07504 -0.2909,0 -0.56045,-0.05312 -0.80867,-0.158028 -0.25159,-0.105685 -0.46948,-0.27641 -0.65256,-0.509351 -0.1842,-0.235189 -0.32796,-0.536083 -0.43465,-0.909869 -0.10445,-0.37345 -0.15612,-0.825745 -0.15612,-1.360143 0,-0.590105 0.046,-1.085867 0.14151,-1.483801 0.0932,-0.401417 0.22463,-0.72174 0.39087,-0.962995 0.16622,-0.236873 0.36951,-0.408042 0.60874,-0.514631 0.24036,-0.103998 0.50206,-0.157915 0.79182,-0.157915 0.41333,0 0.72669,0.0702 0.94346,0.214973 0.21789,0.144774 0.37176,0.263267 0.45937,0.352333 l 0.55034,-0.936713 c -0.054,-0.06582 -0.13702,-0.147019 -0.24148,-0.241365 -0.10444,-0.09345 -0.24035,-0.185546 -0.40994,-0.273264 -0.16511,-0.08996 -0.36952,-0.164542 -0.60763,-0.225979 -0.23924,-0.06144 -0.51554,-0.09301 -0.82552,-0.09301 -0.44702,0 -0.86259,0.07233 -1.2512,0.218005 -0.39086,0.143876 -0.73005,0.381761 -1.01983,0.716461 -0.28864,0.334364 -0.51552,0.767791 -0.68175,1.299492 -0.16735,0.534398 -0.25271,1.197734 -0.25271,1.985291 0,0.771273 0.10001,1.420682 0.29989,1.954966 0.20216,0.53395 0.46273,0.96614 0.78508,1.295224 0.32347,0.32639 0.68288,0.565958 1.07486,0.716013 0.39872,0.150053 0.79632,0.226316 1.19392,0.226316 0.30212,0 0.56606,-0.02887 0.79407,-0.08423 0.228,-0.05526 0.42118,-0.125461 0.58403,-0.208345 0.16399,-0.08379 0.29428,-0.172853 0.39986,-0.2663 0.1067,-0.09435 0.19205,-0.176448 0.25944,-0.243051 z m -6.841143,-0.06582 c -0.0898,0.09873 -0.24934,0.236538 -0.485206,0.409391 -0.2325,0.173303 -0.54024,0.257989 -0.916499,0.257989 -0.358288,0 -0.630087,-0.08299 -0.821025,-0.250577 -0.186447,-0.16589 -0.283039,-0.366373 -0.283039,-0.600215 0,-0.300444 0.08761,-0.548774 0.260578,-0.742742 0.172959,-0.196553 0.434655,-0.402764 0.791825,-0.62515 l 0.4998,-0.302802 c 0.544746,-0.321561 0.973786,-0.670299 1.288279,-1.041054 0.30886,-0.373 0.46611,-0.853375 0.46611,-1.44348 0,-0.632674 -0.22127,-1.167859 -0.66154,-1.60353 -0.438033,-0.432191 -1.070389,-0.650196 -1.893656,-0.650196 -0.320105,0 -0.606508,0.0338 -0.849106,0.100861 -0.245974,0.06806 -0.458245,0.14354 -0.642445,0.233392 -0.184201,0.08906 -0.338074,0.187792 -0.460491,0.293143 -0.12131,0.107493 -0.222394,0.200484 -0.29989,0.291685 l 0.65143,1.066998 c 0.06515,-0.0666 0.147134,-0.144775 0.24148,-0.231146 0.0932,-0.09132 0.208908,-0.179031 0.342566,-0.260235 0.13253,-0.08334 0.284157,-0.152188 0.44926,-0.209244 0.166232,-0.05707 0.363899,-0.08244 0.582919,-0.08244 0.402092,0 0.708704,0.08682 0.919864,0.266749 0.2134,0.176336 0.31561,0.391308 0.31561,0.650196 0,0.187792 -0.0247,0.352334 -0.0742,0.492729 -0.0505,0.1368 -0.12467,0.263155 -0.22463,0.373786 -0.0978,0.110971 -0.2235,0.218454 -0.367272,0.317179 -0.14376,0.100861 -0.31111,0.210593 -0.502048,0.333466 l -0.499803,0.31673 c -0.499802,0.324704 -0.890664,0.662437 -1.175949,1.019151 -0.285275,0.357164 -0.424553,0.811706 -0.424553,1.368903 0,0.300894 0.05732,0.575619 0.175216,0.82743 0.115689,0.247431 0.279664,0.465435 0.490818,0.649746 0.212282,0.184309 0.458245,0.328187 0.742401,0.435224 0.284167,0.10355 0.587421,0.157466 0.909761,0.157466 0.311121,0 0.578429,-0.03111 0.800809,-0.09256 0.223516,-0.05965 0.414456,-0.139047 0.576186,-0.233392 0.160613,-0.09524 0.294273,-0.189589 0.402093,-0.284721 0.10445,-0.09211 0.18981,-0.175998 0.25721,-0.241365 z m -4.722871,0.433875 c -0.03486,0.02247 -0.105577,0.04874 -0.217902,0.08423 -0.112315,0.03212 -0.262814,0.04964 -0.451506,0.04964 -0.421179,0 -0.753632,-0.115458 -0.991749,-0.341775 -0.240353,-0.228564 -0.408831,-0.476444 -0.508787,-0.742744 v -5.873766 h -1.352283 v 8.009901 h 1.234348 v -1.086317 h 0.03374 c 0.0562,0.156231 0.125792,0.309317 0.216764,0.45982 0.08873,0.149605 0.201051,0.284271 0.332463,0.399283 0.135894,0.117591 0.293141,0.209692 0.476213,0.277194 0.1842,0.06582 0.40321,0.100516 0.661542,0.100516 0.186446,0 0.341437,-0.01797 0.459373,-0.05177 0.115689,-0.03291 0.205533,-0.0601 0.272926,-0.08165 z m -6.627747,-2.821031 c 0,1.068345 -0.153873,1.843997 -0.466111,2.327966 -0.31112,0.484754 -0.745776,0.72657 -1.300623,0.72657 -0.555955,0 -0.988374,-0.241816 -1.294992,-0.72657 -0.3055,-0.483969 -0.458255,-1.259621 -0.458255,-2.327966 0,-1.068346 0.155001,-1.836024 0.467239,-2.301123 0.31111,-0.467234 0.746894,-0.701074 1.302859,-0.701074 0.555965,0 0.986128,0.23384 1.291628,0.701074 0.306628,0.465099 0.458255,1.232777 0.458255,2.301123 z m -4.921678,0 c 0,0.73488 0.08649,1.368902 0.259449,1.9033 0.170724,0.534286 0.405467,0.970856 0.699726,1.308253 0.295397,0.341776 0.633461,0.591005 1.01983,0.751503 0.381867,0.161511 0.790698,0.243502 1.225363,0.243502 0.444768,0 0.856963,-0.08199 1.235476,-0.243502 0.377375,-0.160498 0.705336,-0.409727 0.983883,-0.751503 0.278536,-0.337397 0.498674,-0.773967 0.659295,-1.308253 0.16173,-0.534398 0.241471,-1.16842 0.241471,-1.9033 0,-0.745776 -0.08202,-1.386424 -0.249337,-1.919474 -0.16735,-0.530805 -0.3976,-0.967375 -0.692987,-1.308703 -0.29427,-0.33998 -0.637953,-0.586624 -1.026569,-0.743642 -0.388605,-0.153535 -0.801928,-0.233391 -1.234347,-0.233391 -0.445897,0 -0.856963,0.07985 -1.235476,0.233391 -0.378503,0.157018 -0.705336,0.403662 -0.985,0.743642 -0.276301,0.341328 -0.497557,0.773519 -0.659296,1.300841 -0.160612,0.526535 -0.241481,1.170553 -0.241481,1.927336 z m -6.67514,-4.003378 V 78.28964 h 5.656438 l -0.09879,-1.151236 h -4.10671 v -4.257435 h 3.788852 v -1.151684 h -3.788862 v -4.954129 z m -8.745345,1.001181 c 0.210592,0 0.401079,0.02538 0.567756,0.08244 0.167125,0.05707 0.311901,0.125911 0.433426,0.209244 0.122417,0.0812 0.225529,0.168922 0.310216,0.260234 0.0821,0.08637 0.14747,0.164544 0.190824,0.231147 v 4.940204 c -0.122309,0.07715 -0.263604,0.142977 -0.425564,0.199134 -0.161397,0.05707 -0.365027,0.08334 -0.609313,0.08334 -0.311114,0 -0.60291,-0.05088 -0.876174,-0.157915 -0.272028,-0.105685 -0.508564,-0.281239 -0.709947,-0.524739 -0.199585,-0.245186 -0.357051,-0.562477 -0.474645,-0.951988 -0.116246,-0.388274 -0.1751,-0.868761 -0.1751,-1.435956 0,-0.555962 0.04695,-1.02005 0.142192,-1.395184 0.09479,-0.371652 0.224631,-0.67131 0.391756,-0.898076 0.167125,-0.227326 0.355815,-0.390522 0.567306,-0.491381 0.211041,-0.100068 0.433426,-0.150503 0.667267,-0.150504 z m -3.17067,2.884603 c 0,0.811704 0.105684,1.491776 0.318077,2.037068 0.211042,0.54619 0.48352,0.985793 0.817322,1.317574 0.333016,0.333354 0.712081,0.571575 1.134163,0.709386 0.42298,0.140844 0.845849,0.210593 1.269278,0.210593 0.254844,0 0.478241,-0.02111 0.666819,-0.05965 0.189589,-0.03818 0.34492,-0.08648 0.467233,-0.143091 v 3.839853 l 1.352168,0.150055 V 66.775157 h -1.235809 v 0.849779 h -0.03336 c -0.03246,-0.06671 -0.09301,-0.157915 -0.182962,-0.276407 -0.08862,-0.116247 -0.211041,-0.232496 -0.367272,-0.34964 -0.155332,-0.116246 -0.350538,-0.214971 -0.584378,-0.300557 -0.233841,-0.08334 -0.505869,-0.125013 -0.81732,-0.125013 -0.377831,0 -0.73668,0.07548 -1.077108,0.226765 -0.338744,0.151403 -0.636156,0.389624 -0.892348,0.716463 -0.255855,0.327736 -0.458922,0.751167 -0.608077,1.267929 -0.150952,0.517777 -0.226428,1.142926 -0.226428,1.87646 z M 62.05062,66.775156 v 5.155961 c 0,0.677825 -0.11501,1.164826 -0.342675,1.460553 -0.229012,0.294378 -0.576067,0.4414 -1.044199,0.4414 -0.399732,0 -0.733083,-0.09962 -1.000283,-0.301006 -0.2663,-0.199697 -0.478239,-0.394453 -0.633572,-0.58348 v -6.173428 h -1.351719 v 8.009901 h 1.233675 v -0.902456 h 0.03336 c 0.03291,0.06795 0.105359,0.164543 0.21677,0.291796 0.110523,0.12939 0.256641,0.251812 0.433875,0.368059 0.178133,0.116694 0.389174,0.219801 0.635258,0.308419 0.2435,0.08998 0.521256,0.134215 0.833155,0.134215 0.356716,0 0.679624,-0.05391 0.968724,-0.157466 0.28955,-0.10703 0.53305,-0.277757 0.733645,-0.5107 0.200933,-0.233841 0.355817,-0.536982 0.467233,-0.910319 0.11187,-0.371202 0.168024,-0.831472 0.168024,-1.377664 v -5.253785 z m -6.443774,0 h -1.235021 v 0.900209 h -0.03202 c -0.03415,-0.06582 -0.106581,-0.164542 -0.216658,-0.290449 -0.112317,-0.130736 -0.254058,-0.251362 -0.426012,-0.367609 -0.172966,-0.117142 -0.381761,-0.221598 -0.62616,-0.309317 -0.244736,-0.08998 -0.516764,-0.134664 -0.817321,-0.134664 -0.356266,0 -0.676477,0.05268 -0.960411,0.160163 -0.282923,0.106133 -0.525973,0.275061 -0.724323,0.508903 -0.201382,0.234738 -0.354469,0.536082 -0.45982,0.906835 -0.10703,0.372888 -0.158366,0.831361 -0.158366,1.376765 v 5.259067 h 1.35127 v -5.158207 c 0,-0.669064 0.10794,-1.142024 0.324704,-1.424948 0.217555,-0.283036 0.553268,-0.425564 1.010841,-0.425564 0.388275,0 0.717809,0.09648 0.98366,0.291683 0.268884,0.194418 0.478577,0.383109 0.634358,0.573933 v 6.143103 h 1.35127 z M 112.9824,89.126753 c 0,0.578314 -0.13816,0.990736 -0.40996,1.234686 -0.27067,0.244286 -0.5919,0.366261 -0.95916,0.366261 -0.38975,0 -0.72332,-0.121981 -1.00074,-0.366261 -0.2763,-0.24395 -0.41781,-0.656372 -0.41781,-1.234686 0,-0.57865 0.14151,-0.990625 0.41781,-1.235023 0.27742,-0.245184 0.60089,-0.366711 0.96815,-0.366711 0.38863,0 0.72108,0.12152 0.99175,0.366711 0.2718,0.244398 0.40996,0.656373 0.40996,1.235023 z m -1.78582,-5.273106 c -0.2325,0 -0.43915,0.01628 -0.61773,0.05008 -0.0988,-0.05707 -0.19769,-0.12152 -0.2909,-0.200147 -0.0954,-0.07986 -0.18196,-0.174089 -0.26058,-0.284271 -0.0774,-0.110524 -0.13927,-0.241254 -0.19094,-0.391757 -0.0506,-0.150053 -0.0741,-0.326389 -0.0741,-0.525637 0,-0.857306 0.47285,-1.285453 1.41742,-1.285453 0.8143,0 1.41518,0.158365 1.80267,0.474197 0.38973,0.317741 0.58292,0.682767 0.58292,1.094291 0,0.390858 -0.12016,0.664234 -0.36616,0.825631 -0.24484,0.161511 -0.57168,0.243053 -0.985,0.243053 z m 3.72102,6.708275 h -1.00073 c 0.25607,-0.42343 0.38412,-0.901221 0.38412,-1.435169 0,-0.423318 -0.0685,-0.80463 -0.2078,-1.142812 -0.13814,-0.340093 -0.33357,-0.62571 -0.58402,-0.86 -0.2516,-0.234179 -0.54699,-0.412311 -0.88506,-0.534736 -0.3392,-0.121968 -0.70533,-0.182961 -1.09171,-0.182961 -0.0786,0 -0.15275,0 -0.22014,0 -0.0651,0 -0.13814,0.0065 -0.21452,0.01797 -0.13362,-0.05751 -0.27292,-0.145225 -0.42006,-0.268098 -0.14264,-0.122756 -0.21452,-0.28427 -0.21452,-0.484305 0,-0.166788 0.064,-0.302353 0.19094,-0.409839 0.12913,-0.103102 0.33919,-0.157917 0.62672,-0.157917 h 1.01758 c 0.37737,0 0.72669,-0.03908 1.05239,-0.115348 0.32123,-0.07985 0.60426,-0.203629 0.84012,-0.375135 0.24037,-0.172853 0.42793,-0.392655 0.56158,-0.659405 0.13253,-0.268995 0.19992,-0.589657 0.19992,-0.969172 0,-0.433426 -0.0933,-0.829226 -0.27629,-1.185491 -0.18419,-0.355367 -0.44139,-0.661539 -0.7761,-0.916496 -0.3347,-0.25664 -0.73904,-0.458023 -1.2175,-0.601899 -0.48071,-0.14354 -1.01309,-0.217667 -1.60275,-0.217667 -0.85697,0 -1.5084,0.186443 -1.95204,0.56023 -0.4459,0.373449 -0.66716,0.909981 -0.66716,1.611055 0,0.29876 0.0528,0.558995 0.15724,0.776101 0.1067,0.216769 0.23137,0.405908 0.37738,0.566857 0.14377,0.16196 0.2909,0.289101 0.44029,0.383895 0.1505,0.09479 0.27179,0.17027 0.36053,0.223733 v 0.0356 c -0.34707,0.254844 -0.51778,0.628631 -0.51778,1.117878 0,0.211939 0.0403,0.394451 0.12465,0.55057 0.083,0.156681 0.17633,0.282138 0.2819,0.383895 0.10671,0.100068 0.2134,0.181279 0.31898,0.241366 0.10562,0.06099 0.18645,0.10355 0.24261,0.125911 v 0.03291 c -0.41221,0.189027 -0.74466,0.48745 -0.99288,0.893245 -0.25046,0.405797 -0.3785,0.926156 -0.3785,1.560065 0,0.445331 0.0753,0.8372 0.21902,1.176281 0.14489,0.339194 0.33919,0.620431 0.58292,0.843716 0.24709,0.221936 0.53124,0.388723 0.86145,0.50059 0.32684,0.110075 0.68064,0.166227 1.06026,0.166227 0.37739,0 0.73343,-0.06706 1.06588,-0.200933 h 2.43949 z m -9.11105,-6.95919 v 5.15686 c 0,0.678275 -0.11344,1.165725 -0.34481,1.460105 -0.22463,0.295277 -0.57168,0.442185 -1.03891,0.442185 -0.4021,0 -0.73679,-0.09997 -1.00074,-0.300443 -0.26843,-0.199698 -0.48183,-0.394454 -0.6357,-0.584828 v -6.173879 h -1.35228 v 8.009903 h 1.23434 v -0.901557 h 0.0349 c 0.0315,0.06795 0.10446,0.16544 0.21565,0.29348 0.11007,0.128601 0.25607,0.249229 0.43578,0.366823 0.17522,0.116246 0.38749,0.2207 0.63346,0.308868 0.24373,0.08951 0.52339,0.133319 0.83338,0.133319 0.35716,0 0.67839,-0.05301 0.96928,-0.158814 0.28866,-0.106134 0.53238,-0.274612 0.7323,-0.508004 0.20217,-0.233841 0.35829,-0.53788 0.46835,-0.909532 0.11011,-0.373338 0.16623,-0.833158 0.16623,-1.377215 v -5.257271 z m -6.441309,0 H 98.12977 v 0.900324 h -0.03364 c -0.03486,-0.06547 -0.106705,-0.163308 -0.216774,-0.291797 -0.111187,-0.126359 -0.25383,-0.249677 -0.425671,-0.367273 -0.171852,-0.115348 -0.381878,-0.22025 -0.626723,-0.307968 -0.243727,-0.08996 -0.515535,-0.13287 -0.817661,-0.13287 -0.354913,0 -0.672772,0.05167 -0.956929,0.158814 -0.285285,0.104339 -0.527884,0.273714 -0.726678,0.508453 -0.20217,0.233842 -0.352678,0.536083 -0.459373,0.909533 -0.105577,0.372887 -0.158365,0.830461 -0.158365,1.375866 v 5.256821 h 1.352283 v -5.155961 c 0,-0.668165 0.106705,-1.143823 0.324586,-1.427195 0.216774,-0.283036 0.551473,-0.425565 1.009718,-0.425565 0.390862,0 0.715448,0.09782 0.98501,0.291796 0.26506,0.193408 0.479588,0.38603 0.632333,0.576405 v 6.14052 h 1.353415 z m -10.530708,1.001182 c 0.212272,0 0.400964,0.02942 0.567185,0.08334 0.16736,0.05481 0.312239,0.126359 0.434666,0.208457 0.122418,0.08423 0.22463,0.169259 0.308864,0.260572 0.08425,0.08817 0.147135,0.164992 0.192067,0.232494 v 4.940203 c -0.12131,0.07627 -0.26507,0.144775 -0.425681,0.200035 -0.160612,0.05571 -0.365027,0.08244 -0.608744,0.08244 -0.313366,0 -0.605389,-0.05177 -0.876069,-0.157916 -0.274045,-0.107043 -0.509905,-0.281687 -0.709828,-0.526086 -0.199923,-0.243837 -0.359417,-0.561578 -0.475096,-0.950303 -0.119063,-0.390409 -0.176334,-0.8682 -0.176334,-1.435505 0,-0.55585 0.04716,-1.021736 0.141515,-1.394286 0.09432,-0.371991 0.225748,-0.672547 0.393097,-0.90066 0.16736,-0.228226 0.356042,-0.392318 0.566078,-0.49228 0.212271,-0.100068 0.434655,-0.150503 0.66828,-0.150503 z m -3.170677,2.887749 c 0,0.810805 0.105577,1.490765 0.31673,2.03617 0.211154,0.544393 0.48408,0.984895 0.818779,1.317462 0.331335,0.334364 0.710966,0.571237 1.133273,0.709947 0.424554,0.138148 0.846861,0.208345 1.269168,0.208345 0.257203,0 0.478459,-0.01931 0.667152,-0.05829 0.188692,-0.03908 0.347057,-0.08648 0.468357,-0.142191 v 3.838042 l 1.351155,0.150957 V 83.602733 h -1.235476 v 0.852028 h -0.03252 c -0.03252,-0.06885 -0.0932,-0.158815 -0.183072,-0.277307 -0.09096,-0.115797 -0.212282,-0.232494 -0.368401,-0.350538 -0.154991,-0.114901 -0.350421,-0.216321 -0.584036,-0.300108 -0.232496,-0.08334 -0.505423,-0.123654 -0.817661,-0.123654 -0.378503,0 -0.736791,0.07278 -1.075982,0.223732 -0.339192,0.15174 -0.637953,0.389511 -0.892911,0.718147 -0.254957,0.328186 -0.459372,0.750269 -0.608753,1.268382 -0.150499,0.518224 -0.225748,1.143372 -0.225748,1.878254 z m -2.101423,-2.019548 c 0,-0.333354 0.04604,-0.568543 0.140396,-0.701974 0.0932,-0.131524 0.258322,-0.198237 0.493065,-0.198237 0.121299,0 0.22463,0.01006 0.308864,0.03202 0.08202,0.02369 0.147134,0.04515 0.18982,0.06716 l 0.119054,-1.00208 c -0.06738,-0.03246 -0.189811,-0.07727 -0.367273,-0.132979 -0.177452,-0.05615 -0.418933,-0.08379 -0.718812,-0.08379 -0.456009,0 -0.823282,0.139497 -1.101818,0.417703 -0.277418,0.277307 -0.416697,0.773517 -0.416697,1.485486 v 10.045732 l 1.353411,0.150953 z m -4.073578,8.077515 c -0.277195,0 -0.500138,0.08784 -0.667264,0.265964 -0.167126,0.178918 -0.250577,0.412311 -0.250577,0.702758 0,0.276409 0.08344,0.504972 0.250577,0.683553 0.167126,0.177234 0.390069,0.26675 0.667264,0.26675 0.267204,0 0.483968,-0.08951 0.650647,-0.26675 0.167238,-0.178581 0.250577,-0.407144 0.250577,-0.683553 0,-0.290447 -0.08334,-0.52384 -0.250577,-0.702758 -0.166679,-0.178133 -0.383443,-0.265964 -0.650647,-0.265964 z m 0.668168,-9.946898 h -1.352506 v 8.009903 h 1.352506 z m -4.689964,3.220315 c 0,0.624251 -0.203179,1.115182 -0.609424,1.477175 -0.405348,0.361994 -0.987142,0.542259 -1.743925,0.542259 h -0.984558 v -4.037185 h 0.901557 c 0.855957,0 1.476388,0.168924 1.859834,0.507555 0.385243,0.339193 0.576516,0.843266 0.576516,1.510196 z m -0.217218,5.307363 c 0,0.533949 -0.18869,0.973552 -0.566858,1.317911 -0.378615,0.346608 -0.973999,0.518112 -1.786043,0.518112 h -0.767788 v -3.972716 h 0.752401 c 0.776551,0 1.366209,0.190487 1.768073,0.568205 0.401079,0.378617 0.600215,0.901109 0.600215,1.568488 z m 1.468414,0.05043 c 0,-0.400967 -0.04954,-0.751167 -0.149154,-1.051163 -0.09997,-0.300557 -0.237322,-0.559893 -0.409279,-0.776662 -0.172517,-0.217556 -0.37345,-0.392656 -0.600664,-0.524626 -0.228562,-0.135235 -0.465099,-0.23429 -0.709048,-0.300557 v -0.0347 c 0.299321,-0.05526 0.580897,-0.160163 0.84158,-0.316281 0.262819,-0.156681 0.490482,-0.350538 0.684789,-0.58393 0.195766,-0.233504 0.351885,-0.5098 0.467232,-0.827991 0.117144,-0.316281 0.175101,-0.663335 0.175101,-1.042851 0,-0.455326 -0.07762,-0.872131 -0.232493,-1.24996 -0.15758,-0.379856 -0.399282,-0.706808 -0.72657,-0.984451 -0.328186,-0.278653 -0.742294,-0.495759 -1.243334,-0.65199 -0.500591,-0.155333 -1.095527,-0.232943 -1.785706,-0.232943 h -2.352451 v 11.514936 h 2.218682 c 0.678725,0 1.26007,-0.0684 1.743926,-0.206997 0.484417,-0.141293 0.8828,-0.338744 1.193353,-0.593251 0.310666,-0.255744 0.536981,-0.56596 0.676589,-0.926605 0.1377,-0.361881 0.207447,-0.765094 0.207447,-1.209976 z M 65.904843,90.428042 c -0.0338,0.02292 -0.106581,0.05099 -0.216768,0.08468 -0.111421,0.03202 -0.262371,0.04919 -0.4505,0.04919 -0.423879,0 -0.754199,-0.113215 -0.993318,-0.342225 -0.240468,-0.228559 -0.40939,-0.475542 -0.508902,-0.742291 v -5.87467 h -1.352618 v 8.009902 h 1.235809 v -1.08362 h 0.0338 c 0.05447,0.155331 0.127256,0.308419 0.216768,0.458023 0.08951,0.150952 0.199585,0.284719 0.333016,0.400966 0.134216,0.117144 0.292134,0.209356 0.475096,0.275511 0.183861,0.06671 0.403662,0.100068 0.659854,0.100068 0.18914,0 0.342675,-0.01707 0.458922,-0.04998 0.116695,-0.03336 0.208457,-0.06054 0.27551,-0.08334 z m -6.341454,3.487962 c 0,-0.256642 -0.07896,-0.461506 -0.232941,-0.617287 -0.15668,-0.155333 -0.346607,-0.234291 -0.568205,-0.234291 -0.223285,0 -0.411525,0.07896 -0.567644,0.234291 -0.155782,0.155781 -0.23474,0.360645 -0.23474,0.617287 0,0.25664 0.07896,0.462852 0.23474,0.617735 0.156119,0.155782 0.344359,0.233392 0.567644,0.233392 0.221598,0 0.411525,-0.07762 0.568205,-0.233392 0.153983,-0.154883 0.232941,-0.361095 0.232941,-0.617735 z m -2.570118,0 c 0,-0.256642 -0.07807,-0.461506 -0.233842,-0.617287 -0.155781,-0.155333 -0.344359,-0.234291 -0.567755,-0.234291 -0.222834,0 -0.411861,0.07896 -0.566743,0.234291 -0.155335,0.155781 -0.234741,0.360645 -0.234741,0.617287 0,0.25664 0.07941,0.462852 0.234741,0.617735 0.154882,0.155782 0.343909,0.233392 0.566743,0.233392 0.223396,0 0.411974,-0.07762 0.567755,-0.233392 0.155783,-0.154883 0.233842,-0.361095 0.233842,-0.617735 z m 3.320387,-10.313272 h -1.234573 v 0.900324 h -0.03291 c -0.03515,-0.06547 -0.106256,-0.163308 -0.217668,-0.291797 -0.11142,-0.126359 -0.252261,-0.249678 -0.426013,-0.367273 -0.171058,-0.115348 -0.380863,-0.22025 -0.62515,-0.307969 -0.244847,-0.08996 -0.517775,-0.132869 -0.818219,-0.132869 -0.355479,0 -0.67614,0.05167 -0.958726,0.158814 -0.283372,0.104339 -0.525525,0.273714 -0.726008,0.508453 -0.201045,0.233841 -0.35458,0.536083 -0.45982,0.909533 -0.103999,0.372887 -0.157579,0.830461 -0.157579,1.375865 v 5.256821 h 1.352168 v -5.155961 c 0,-0.668165 0.1076,-1.143822 0.324704,-1.427194 0.21722,-0.283036 0.553266,-0.425566 1.009044,-0.425566 0.389174,0 0.718258,0.09783 0.984109,0.291797 0.268097,0.193408 0.479588,0.38603 0.635258,0.576405 v 6.140519 h 1.351381 z m -6.942566,6.909996 H 51.736 v -6.909995 h -1.352167 v 6.909996 h -0.968385 v 0.90122 l 0.968385,0.183412 v 1.601285 c 0,0.433537 0.06099,0.806426 0.185096,1.118776 0.121072,0.310664 0.282586,0.567304 0.48262,0.766553 0.200484,0.200933 0.434325,0.345708 0.701525,0.434775 0.266748,0.08951 0.551019,0.132421 0.850677,0.132421 0.289101,0 0.533949,-0.03818 0.733984,-0.116694 0.200483,-0.07672 0.333465,-0.139048 0.401077,-0.182515 l -0.283933,-1.118775 c -0.06706,0.04392 -0.161398,0.09221 -0.283821,0.14309 -0.12152,0.04818 -0.272478,0.07412 -0.450161,0.07412 -0.322459,0 -0.567757,-0.100515 -0.734881,-0.299658 C 51.81889,93.949806 51.736,93.582533 51.736,93.048249 V 91.61263 h 1.802218 z M 158.49158,100.4321 v 5.15675 c 0,0.65593 -0.0943,1.12877 -0.28416,1.41855 -0.18758,0.28865 -0.49531,0.43353 -0.9165,0.43353 -0.22351,0 -0.42006,-0.0281 -0.59528,-0.0831 -0.17072,-0.0562 -0.32122,-0.12579 -0.456,-0.2089 -0.13592,-0.0831 -0.25045,-0.17522 -0.35042,-0.27518 -0.0999,-0.10112 -0.18308,-0.18869 -0.25047,-0.26731 v -6.17432 h -1.3534 v 8.01069 h 1.23547 v -0.90189 h 0.0348 c 0.0551,0.0887 0.13928,0.19655 0.24822,0.32459 0.11228,0.12916 0.25159,0.25046 0.41893,0.3684 0.16623,0.11681 0.36278,0.21452 0.58292,0.29202 0.22352,0.0774 0.47172,0.11569 0.75252,0.11569 0.912,0 1.5567,-0.35492 1.93521,-1.067 0.0764,0.11007 0.18306,0.22912 0.31896,0.35941 0.13036,0.12692 0.28753,0.24373 0.46388,0.35042 0.1797,0.10445 0.38075,0.19094 0.602,0.2572 0.22239,0.0685 0.46836,0.10001 0.73567,0.10001 1.62408,0 2.43613,-0.94458 2.43613,-2.83597 v -5.37352 h -1.35229 v 5.15675 c 0,0.65592 -0.11675,1.12877 -0.3493,1.41855 -0.23361,0.28865 -0.57842,0.43353 -1.03667,0.43353 -0.37739,0 -0.69074,-0.0921 -0.9412,-0.27517 -0.25272,-0.1842 -0.44927,-0.3594 -0.59191,-0.52564 0.0202,-0.12467 0.0382,-0.25271 0.0495,-0.3931 0.009,-0.13927 0.0157,-0.28641 0.0157,-0.4414 v -5.37352 z m -6.27396,0 h -1.23435 v 0.90111 h -0.0348 c -0.0326,-0.0663 -0.10561,-0.16398 -0.21452,-0.29202 -0.11227,-0.12915 -0.25496,-0.25046 -0.42793,-0.36839 -0.17184,-0.11569 -0.37962,-0.21789 -0.62559,-0.30786 -0.24486,-0.0886 -0.51778,-0.13377 -0.81542,-0.13377 -0.35828,0 -0.67839,0.0535 -0.96367,0.15926 -0.28303,0.1049 -0.5234,0.2745 -0.72555,0.50812 -0.19768,0.23474 -0.35267,0.53687 -0.45938,0.90976 -0.10222,0.37288 -0.15835,0.83114 -0.15835,1.37586 v 5.25863 h 1.35226 v -5.15754 c 0,-0.66716 0.11011,-1.14338 0.32573,-1.42641 0.2179,-0.28415 0.55371,-0.4268 1.01083,-0.4268 0.38973,0 0.71658,0.0978 0.98389,0.29314 0.26843,0.19431 0.47847,0.38637 0.63458,0.5773 v 6.14031 h 1.35229 z m -8.34281,9.94589 c -0.28078,0 -0.50204,0.0887 -0.67051,0.26731 -0.16736,0.17747 -0.25047,0.41108 -0.25047,0.69973 0,0.27855 0.083,0.50654 0.25047,0.684 0.16847,0.17858 0.38973,0.26731 0.67051,0.26731 0.26506,0 0.48185,-0.0887 0.65032,-0.26731 0.16735,-0.17746 0.24932,-0.40545 0.24932,-0.684 0,-0.28865 -0.0819,-0.52226 -0.24932,-0.69973 -0.16847,-0.17858 -0.38526,-0.26731 -0.65032,-0.26731 z m 0.66604,-9.94589 h -1.35341 v 8.0107 h 1.35341 z m -2.6866,6.82576 c -0.0337,0.0213 -0.1067,0.0494 -0.21563,0.082 -0.11351,0.0349 -0.26395,0.0505 -0.45152,0.0505 -0.4223,0 -0.75475,-0.11456 -0.99399,-0.34144 -0.23923,-0.228 -0.40883,-0.47621 -0.50879,-0.7424 v -5.87445 h -1.35116 v 8.0107 h 1.23436 v -1.08498 h 0.0314 c 0.0584,0.155 0.12914,0.30887 0.21902,0.45825 0.0875,0.15163 0.20105,0.28303 0.33358,0.40097 0.13592,0.11569 0.29314,0.20778 0.47509,0.27517 0.1842,0.0663 0.40435,0.10113 0.66042,0.10113 0.18982,0 0.34144,-0.0169 0.45825,-0.0516 0.11567,-0.0325 0.20779,-0.0607 0.27405,-0.082 z m -7.85984,0.28304 c -0.47847,0 -0.86258,-0.20105 -1.15124,-0.60089 -0.29088,-0.39984 -0.45824,-0.9794 -0.50317,-1.73416 h 2.92133 c 0.0109,0.0551 0.0213,0.13478 0.0269,0.24037 0.004,0.10669 0.009,0.21901 0.009,0.34368 0,0.55597 -0.11349,0.98613 -0.33694,1.29275 -0.22239,0.3055 -0.54474,0.45825 -0.96592,0.45825 z m 2.53609,-1.80267 c 0,-0.34593 -0.0109,-0.64245 -0.0348,-0.89291 -0.0202,-0.24934 -0.045,-0.46948 -0.0662,-0.65817 h -4.0894 c 0.045,-0.9457 0.24822,-1.64205 0.611,-2.08682 0.36165,-0.44477 0.88167,-0.66828 1.56006,-0.66828 0.2325,0 0.44477,0.0292 0.63458,0.0842 0.1887,0.0551 0.34929,0.12243 0.49083,0.19993 0.13814,0.0776 0.25832,0.15612 0.35042,0.23474 0.0954,0.0763 0.1651,0.13927 0.21002,0.18307 l 0.49981,-0.95132 c -0.0561,-0.0562 -0.1404,-0.13589 -0.25046,-0.2426 -0.1101,-0.10445 -0.26058,-0.21002 -0.45152,-0.31673 -0.18756,-0.10557 -0.42119,-0.197 -0.69748,-0.2755 -0.27853,-0.0772 -0.60762,-0.1167 -0.98725,-0.1167 -0.49869,0 -0.95131,0.0829 -1.35901,0.25069 -0.40546,0.16622 -0.75027,0.42567 -1.03556,0.77497 -0.28304,0.35043 -0.50316,0.79632 -0.65929,1.33656 -0.15612,0.53912 -0.2325,1.18717 -0.2325,1.94306 0,0.71209 0.0786,1.32757 0.24036,1.84535 0.16173,0.51552 0.383,0.94232 0.66042,1.27478 0.27853,0.33582 0.59864,0.5818 0.96703,0.74353 0.36615,0.16174 0.76375,0.24148 1.18718,0.24148 0.76487,0 1.368,-0.24148 1.80267,-0.72556 0.43242,-0.48296 0.64918,-1.20852 0.64918,-2.1778 z m -6.55925,1.60162 h -1.7521 v -4.43871 c 0,-0.56719 0.072,-0.95243 0.21676,-1.15909 0.14376,-0.20555 0.38973,-0.31 0.73454,-0.31 0.20106,0 0.37401,0.0292 0.51778,0.0842 0.14376,0.0551 0.24933,0.10671 0.31673,0.1505 l 0.18308,-1.08496 c -0.054,-0.0438 -0.18869,-0.11457 -0.40098,-0.20858 -0.21115,-0.0934 -0.49531,-0.14207 -0.8491,-0.14207 -0.68962,0 -1.20851,0.19262 -1.55333,0.5764 -0.34593,0.38412 -0.51777,1.02095 -0.51777,1.90937 v 4.62291 h -0.96704 v 0.90189 l 0.96704,0.20105 0.15163,2.23508 h 1.20066 v -2.23508 h 1.92059 z m -5.80895,-0.51665 c -0.0875,0.1 -0.24709,0.23699 -0.48072,0.40883 -0.23586,0.17297 -0.54248,0.25945 -0.91873,0.25945 -0.35717,0 -0.62897,-0.0842 -0.81878,-0.25159 -0.18981,-0.16623 -0.28303,-0.36615 -0.28303,-0.59977 0,-0.30212 0.0854,-0.54697 0.25831,-0.74353 0.17297,-0.1943 0.43466,-0.40208 0.79295,-0.62447 l 0.50205,-0.301 c 0.54361,-0.32235 0.97154,-0.67053 1.28266,-1.04342 0.31111,-0.37288 0.46721,-0.8536 0.46721,-1.44325 0,-0.63458 -0.22012,-1.16809 -0.65928,-1.60274 -0.43916,-0.43354 -1.07037,-0.65054 -1.89365,-0.65054 -0.32234,0 -0.60537,0.0333 -0.85022,0.10082 -0.24597,0.0659 -0.45937,0.14421 -0.64245,0.23295 -0.18419,0.0898 -0.33807,0.18643 -0.45937,0.29089 -0.12247,0.10671 -0.22238,0.20442 -0.301,0.29427 l 0.65143,1.067 c 0.0674,-0.0663 0.14825,-0.14489 0.24147,-0.23362 0.0954,-0.0898 0.2089,-0.17521 0.3437,-0.25833 0.13253,-0.0843 0.28416,-0.15387 0.44925,-0.2089 0.16623,-0.055 0.36165,-0.0843 0.58405,-0.0843 0.39871,0 0.70646,0.0898 0.9176,0.26843 0.21229,0.17746 0.31674,0.39535 0.31674,0.6503 0,0.18982 -0.0237,0.35268 -0.0764,0.49308 -0.0495,0.13815 -0.12125,0.26394 -0.2224,0.37513 -0.10112,0.11118 -0.22462,0.21677 -0.36951,0.31673 -0.14152,0.1 -0.30999,0.21228 -0.49867,0.33245 l -0.50094,0.31897 c -0.49979,0.32236 -0.8929,0.66155 -1.17819,1.01871 -0.28303,0.35492 -0.42456,0.81092 -0.42456,1.36688 0,0.30101 0.0596,0.57618 0.1741,0.82665 0.11907,0.24934 0.28079,0.4661 0.49306,0.65143 0.21116,0.18307 0.46049,0.32796 0.74353,0.43241 0.28416,0.1067 0.58742,0.15836 0.90976,0.15836 0.31336,0 0.5773,-0.0292 0.80081,-0.0898 0.22239,-0.0618 0.41557,-0.14039 0.5773,-0.23474 0.16061,-0.0943 0.29314,-0.18869 0.39872,-0.28528 0.1033,-0.0921 0.19431,-0.17296 0.25833,-0.24036 z m -6.19084,3.55479 c -0.27742,0 -0.49757,0.0887 -0.66716,0.26731 -0.16734,0.17747 -0.25047,0.41108 -0.25047,0.69973 0,0.27855 0.0832,0.50654 0.25047,0.684 0.16959,0.17858 0.38974,0.26731 0.66716,0.26731 0.26619,0 0.4852,-0.0887 0.65479,-0.26731 0.16512,-0.17746 0.24711,-0.40545 0.24711,-0.684 0,-0.28865 -0.0819,-0.52226 -0.24711,-0.69973 -0.16959,-0.17858 -0.3886,-0.26731 -0.65479,-0.26731 z m 0.67053,-9.94589 h -1.3534 v 8.0107 h 1.3534 z m -4.72512,0 v 5.15675 c 0,0.67839 -0.11228,1.16472 -0.34032,1.4601 -0.22799,0.29539 -0.57731,0.44253 -1.04567,0.44253 -0.39984,0 -0.7334,-0.10113 -0.99848,-0.30213 -0.26956,-0.19879 -0.47845,-0.39311 -0.63683,-0.58292 v -6.17433 h -1.35003 v 8.0107 h 1.23547 v -0.9019 h 0.0326 c 0.0326,0.0685 0.1067,0.16398 0.21452,0.29202 0.11228,0.12916 0.25833,0.25047 0.43579,0.36728 0.17858,0.11679 0.3886,0.21901 0.63347,0.30886 0.24595,0.0887 0.5245,0.13253 0.83562,0.13253 0.35603,0 0.67725,-0.0516 0.96703,-0.15836 0.28866,-0.10445 0.5335,-0.27405 0.73454,-0.50767 0.19993,-0.23474 0.35829,-0.53687 0.46948,-0.90975 0.10902,-0.3729 0.16398,-0.83114 0.16398,-1.37699 v -5.25672 z m -7.11071,9.94589 c -0.27629,0 -0.49868,0.0887 -0.66491,0.26731 -0.16847,0.17747 -0.25158,0.41108 -0.25158,0.69973 0,0.27855 0.0831,0.50654 0.25158,0.684 0.16623,0.17858 0.38862,0.26731 0.66491,0.26731 0.26732,0 0.48745,-0.0887 0.6548,-0.26731 0.16399,-0.17746 0.24709,-0.40545 0.24709,-0.684 0,-0.28865 -0.083,-0.52226 -0.24709,-0.69973 -0.16735,-0.17858 -0.38748,-0.26731 -0.6548,-0.26731 z m 0.6694,-9.94589 h -1.35003 v 8.0107 h 1.35003 z m -8.927975,0 v 5.15675 c 0,0.65593 -0.09543,1.12877 -0.285285,1.41855 -0.188682,0.28865 -0.494182,0.43353 -0.917617,0.43353 -0.222384,0 -0.418933,-0.0281 -0.591903,-0.0831 -0.171842,-0.0562 -0.325714,-0.12579 -0.460491,-0.2089 -0.131422,-0.0831 -0.249347,-0.17522 -0.349303,-0.27518 -0.09991,-0.10112 -0.184201,-0.18869 -0.249338,-0.26731 v -6.17432 h -1.351165 v 8.01069 h 1.232112 v -0.90189 h 0.03598 c 0.05509,0.0887 0.137022,0.19655 0.249338,0.32459 0.112315,0.12916 0.250465,0.25046 0.417814,0.3684 0.166222,0.11681 0.360535,0.21452 0.585165,0.29202 0.221256,0.0774 0.471721,0.11569 0.74914,0.11569 0.912007,0 1.557829,-0.35492 1.936335,-1.067 0.0774,0.11007 0.18532,0.22912 0.3156,0.35941 0.13478,0.12692 0.288653,0.24373 0.469493,0.35042 0.17633,0.10445 0.37625,0.19094 0.59976,0.2572 0.22013,0.0685 0.46835,0.10001 0.73342,0.10001 1.62633,0 2.435,-0.94458 2.435,-2.83597 v -5.37352 h -1.35003 v 5.15675 c 0,0.65592 -0.11569,1.12877 -0.35042,1.41855 -0.2325,0.28865 -0.57731,0.43353 -1.03331,0.43353 -0.37738,0 -0.69187,-0.0921 -0.94345,-0.27517 -0.25047,-0.1842 -0.449263,-0.3594 -0.591903,-0.52564 0.0213,-0.12467 0.0382,-0.25271 0.0494,-0.3931 0.0113,-0.13927 0.0169,-0.28641 0.0169,-0.4414 v -5.37352 z m -6.591799,6.3911 c -0.08873,0.1 -0.252712,0.23699 -0.48408,0.40883 -0.234743,0.17297 -0.539124,0.25945 -0.918745,0.25945 -0.353796,0 -0.627851,-0.0842 -0.817661,-0.25159 -0.188693,-0.16623 -0.281911,-0.36615 -0.281911,-0.59977 0,-0.30212 0.08425,-0.54697 0.258321,-0.74353 0.171852,-0.1943 0.434666,-0.40208 0.791826,-0.62447 l 0.500931,-0.301 c 0.545852,-0.32235 0.972652,-0.67053 1.28489,-1.04342 0.312238,-0.37288 0.467239,-0.8536 0.467239,-1.44325 0,-0.63458 -0.220148,-1.16809 -0.658178,-1.60274 -0.440276,-0.43354 -1.072608,-0.65054 -1.893633,-0.65054 -0.324597,0 -0.606508,0.0333 -0.852481,0.10082 -0.244845,0.0659 -0.459372,0.14421 -0.643573,0.23295 -0.183072,0.0898 -0.336945,0.18643 -0.458244,0.29089 -0.1213,0.10671 -0.222384,0.20442 -0.301008,0.29427 l 0.651429,1.067 c 0.06738,-0.0663 0.147135,-0.14489 0.242609,-0.23362 0.09543,-0.0898 0.208908,-0.17521 0.342556,-0.25833 0.133668,-0.0843 0.283039,-0.15387 0.44927,-0.2089 0.168468,-0.055 0.361652,-0.0843 0.585165,-0.0843 0.398718,0 0.706463,0.0898 0.914243,0.26843 0.213399,0.17746 0.321222,0.39535 0.321222,0.6503 0,0.18982 -0.02805,0.35268 -0.07633,0.49308 -0.05051,0.13815 -0.125782,0.26394 -0.225749,0.37513 -0.101125,0.11118 -0.221266,0.21677 -0.366154,0.31673 -0.144889,0.1 -0.31111,0.21228 -0.500931,0.33245 l -0.499802,0.31897 c -0.502049,0.32236 -0.894029,0.66155 -1.177067,1.01871 -0.284157,0.35492 -0.4268,0.81092 -0.4268,1.36688 0,0.30101 0.05844,0.57618 0.176334,0.82665 0.11569,0.24934 0.280793,0.4661 0.493075,0.65143 0.210025,0.18307 0.458244,0.32796 0.741273,0.43241 0.284167,0.1067 0.588539,0.15836 0.909761,0.15836 0.31112,0 0.578426,-0.0292 0.80081,-0.0898 0.222384,-0.0618 0.413323,-0.14039 0.573934,-0.23474 0.162857,-0.0943 0.296515,-0.18869 0.40321,-0.28528 0.105577,-0.0921 0.190939,-0.17296 0.258332,-0.24036 z m -7.794712,0.7177 c -0.477341,0 -0.861455,-0.20105 -1.150114,-0.60089 -0.290895,-0.39984 -0.455998,-0.9794 -0.50092,-1.73416 h 2.92133 c 0.01128,0.0551 0.01799,0.13478 0.02358,0.24037 0.0051,0.10669 0.0091,0.21901 0.0091,0.34368 0,0.55597 -0.111186,0.98613 -0.334709,1.29275 -0.222384,0.3055 -0.544724,0.45825 -0.968159,0.45825 z m 2.538335,-1.80267 c 0,-0.34593 -0.0124,-0.64245 -0.03486,-0.89291 -0.02246,-0.24934 -0.0438,-0.46948 -0.06515,-0.65817 h -4.089412 c 0.04492,-0.9457 0.248209,-1.64205 0.608743,-2.08682 0.361663,-0.44477 0.882808,-0.66828 1.560073,-0.66828 0.233614,0 0.445886,0.0292 0.63345,0.0842 0.189821,0.0551 0.353796,0.12243 0.493075,0.19993 0.139268,0.0776 0.257203,0.15612 0.352667,0.23474 0.0932,0.0763 0.16173,0.13927 0.206662,0.18307 l 0.499802,-0.95132 c -0.05498,-0.0562 -0.13815,-0.13589 -0.249337,-0.2426 -0.110079,-0.10445 -0.260578,-0.21002 -0.44926,-0.31673 -0.189821,-0.10557 -0.424553,-0.197 -0.701982,-0.2755 -0.278536,-0.0772 -0.606497,-0.1167 -0.985,-0.1167 -0.500931,0 -0.954683,0.0829 -1.36015,0.25069 -0.406574,0.16622 -0.750268,0.42567 -1.034424,0.77497 -0.283029,0.35043 -0.503177,0.79632 -0.659296,1.33656 -0.155774,0.53912 -0.233838,1.18717 -0.233838,1.94306 0,0.71209 0.08019,1.32757 0.242599,1.84535 0.160845,0.51552 0.379854,0.94232 0.658401,1.27478 0.277419,0.33582 0.602005,0.5818 0.96816,0.74353 0.366144,0.16174 0.762616,0.24148 1.184923,0.24148 0.768247,0 1.369134,-0.24148 1.802671,-0.72556 0.433538,-0.48296 0.65143,-1.20852 0.65143,-2.1778 z m -10.063593,-4.30618 c 0.210592,0 0.399731,0.0292 0.566408,0.0842 0.168473,0.0551 0.31235,0.12468 0.434773,0.20891 0.121969,0.0831 0.22553,0.16847 0.309317,0.25832 0.08289,0.0887 0.146572,0.16735 0.190375,0.23362 v 4.93964 c -0.12152,0.0787 -0.263267,0.14489 -0.425562,0.20106 -0.16095,0.0551 -0.364128,0.0831 -0.608527,0.0831 -0.310553,0 -0.603697,-0.0529 -0.876175,-0.15837 -0.271916,-0.10558 -0.509352,-0.28078 -0.708935,-0.52451 -0.200035,-0.2471 -0.359299,-0.56495 -0.477343,-0.95244 -0.115009,-0.38861 -0.173751,-0.8682 -0.173751,-1.4354 0,-0.55596 0.0474,-1.02094 0.142191,-1.39383 0.09425,-0.37176 0.224631,-0.67277 0.390859,-0.90077 0.167125,-0.22913 0.357164,-0.39198 0.568653,-0.49307 0.211041,-0.0989 0.433426,-0.1505 0.667717,-0.1505 z m -3.170784,2.88651 c 0,0.81317 0.10491,1.49267 0.317292,2.03741 0.211378,0.54473 0.482958,0.98388 0.816423,1.31859 0.334813,0.33357 0.71298,0.56943 1.135512,0.70983 0.422418,0.13927 0.845399,0.2089 1.26838,0.2089 0.255294,0 0.478128,-0.0213 0.667267,-0.0596 0.189476,-0.0382 0.345258,-0.0854 0.466783,-0.14263 v 3.83895 l 1.352166,0.1505 v -11.94847 h -1.234122 v 0.85056 h -0.03336 c -0.03336,-0.0674 -0.09559,-0.15723 -0.183411,-0.27517 -0.08952,-0.1168 -0.212277,-0.23361 -0.368059,-0.35042 -0.155332,-0.11569 -0.350538,-0.21801 -0.583479,-0.3009 -0.234291,-0.0829 -0.506769,-0.12501 -0.818332,-0.12501 -0.377268,0 -0.736567,0.075 -1.076995,0.22597 -0.338295,0.14939 -0.636156,0.38862 -0.892909,0.71658 -0.255294,0.32909 -0.458023,0.7514 -0.608863,1.26917 -0.149268,0.51665 -0.224295,1.14225 -0.224295,1.87567 z m -3.005229,-3.88646 v 5.15675 c 0,0.67839 -0.113215,1.16472 -0.340989,1.4601 -0.229012,0.29539 -0.575955,0.44253 -1.043637,0.44253 -0.40063,0 -0.734096,-0.10113 -1.001632,-0.30213 -0.266412,-0.19879 -0.477341,-0.39311 -0.633123,-0.58292 v -6.17433 h -1.352616 v 8.0107 h 1.235022 v -0.9019 h 0.0338 c 0.03336,0.0685 0.104337,0.16398 0.217555,0.29202 0.110184,0.12916 0.254957,0.25047 0.433088,0.36728 0.177685,0.11679 0.389511,0.21901 0.63391,0.30886 0.245747,0.0887 0.522941,0.13253 0.834955,0.13253 0.355816,0 0.678274,-0.0516 0.968272,-0.15836 0.288652,-0.10445 0.534399,-0.27405 0.733984,-0.50767 0.200033,-0.23474 0.355815,-0.53687 0.465998,-0.90975 0.112317,-0.3729 0.168023,-0.83114 0.168023,-1.37699 v -5.25672 z m -6.440627,0 h -1.235922 v 0.90111 h -0.03246 c -0.03336,-0.0663 -0.105684,-0.16398 -0.217667,-0.29202 -0.110972,-0.12915 -0.251363,-0.25046 -0.425115,-0.36839 -0.172405,-0.11569 -0.3812,-0.21789 -0.626946,-0.30786 -0.243501,-0.0886 -0.516315,-0.13377 -0.817321,-0.13377 -0.356266,0 -0.675242,0.0535 -0.958164,0.15926 -0.284833,0.1049 -0.526087,0.2745 -0.727469,0.50812 -0.200484,0.23474 -0.35312,0.53687 -0.457575,0.90976 -0.10703,0.37288 -0.159262,0.83114 -0.159262,1.37586 v 5.25863 h 1.351718 v -5.15754 c 0,-0.66716 0.108837,-1.14338 0.324705,-1.42641 0.217555,-0.28415 0.554502,-0.4268 1.010391,-0.4268 0.389174,0 0.718146,0.0978 0.984896,0.29314 0.26675,0.19431 0.477341,0.38637 0.63447,0.5773 v 6.14031 h 1.35172 z m -8.945828,3.22043 c 0,0.62336 -0.203067,1.11529 -0.608864,1.47696 -0.406806,0.36165 -0.98804,0.54247 -1.743587,0.54247 H 51.736 v -4.03887 h 0.901558 c 0.856407,0 1.476727,0.17073 1.860171,0.50879 0.383896,0.34032 0.575619,0.84462 0.575619,1.51065 z m -0.216208,5.30804 c 0,0.5335 -0.189588,0.97265 -0.569103,1.31746 -0.377268,0.34481 -0.972654,0.51777 -1.784696,0.51777 H 51.736 v -3.9726 h 0.750607 c 0.778796,0 1.368902,0.18869 1.768971,0.56719 0.401416,0.37851 0.601562,0.9019 0.601562,1.57018 z m 1.467966,0.0494 c 0,-0.39985 -0.04998,-0.75139 -0.150503,-1.05352 -0.09962,-0.29988 -0.235638,-0.55709 -0.408043,-0.77498 -0.173303,-0.21564 -0.372889,-0.39198 -0.601451,-0.52564 -0.227326,-0.13253 -0.46375,-0.23249 -0.708598,-0.29988 v -0.0325 c 0.300106,-0.0562 0.581345,-0.16061 0.842367,-0.31784 0.26192,-0.15612 0.490931,-0.35044 0.684002,-0.58405 0.195204,-0.23361 0.350987,-0.50767 0.467682,-0.82552 0.116246,-0.31786 0.1751,-0.66603 0.1751,-1.04453 0,-0.45489 -0.07818,-0.87157 -0.232943,-1.24896 -0.155332,-0.37962 -0.398383,-0.70871 -0.727468,-0.98613 -0.326839,-0.27741 -0.741059,-0.49531 -1.242098,-0.65142 -0.501041,-0.15501 -1.096763,-0.23284 -1.785595,-0.23284 h -2.3529 v 11.51382 h 2.218683 c 0.678725,0 1.260406,-0.0685 1.744824,-0.20778 0.483069,-0.13928 0.881003,-0.33583 1.192455,-0.59303 0.311114,-0.25496 0.536532,-0.56383 0.67614,-0.92549 0.138149,-0.36278 0.208346,-0.76599 0.208346,-1.20964" /><path
       inkscape:connector-curvature="0"
       id="path4826"
       style="fill:#f2cf04;fill-opacity:1;fill-rule:nonzero;stroke:none;stroke-width:0.112316"
       d="m 37.746977,55.556734 h 2.102437 V 27.508038 h -4.907745 v 28.048696 h 2.805308" /><path
       inkscape:connector-curvature="0"
       id="path4828"
       style="fill:#ed1c24;fill-opacity:1;fill-rule:nonzero;stroke:none;stroke-width:0.112316"
       d="m 37.746977,83.74178 h 2.102437 V 55.556734 H 34.941669 V 83.74178 h 2.805308" /><path
       inkscape:connector-curvature="0"
       id="path4830" class="st2"
       style="fill-opacity:1;fill-rule:nonzero;stroke:none;stroke-width:0.112316"
       d="m 13.447714,101.35905 c 0.03728,0.31336 0.0593,0.63795 0.0593,0.96928 0,0.18083 0.0012,0.39086 -0.02111,0.62785 2.79475,0.0405 5.247275,2.05312 5.247275,4.37019 0,1.17932 -0.768689,2.06662 -1.202564,2.59899 0.09693,0.0191 0.195204,0.0427 0.294379,0.0674 0.409279,-0.35491 1.570622,-1.62071 1.570622,-3.22009 0,-2.77757 -2.777117,-5.35633 -5.947899,-5.41361 z m -2.816653,9.67599 c -0.05222,0.30887 -0.16982,0.58965 -0.348741,0.83002 0.0083,0.28302 0.125014,0.55371 0.581235,0.33132 -0.247432,-0.25271 -0.0566,-0.6986 -0.0566,-0.6986 0,0 0.505085,0.23362 0.399731,0.56607 0.749819,-0.17971 0.21194,-1.1838 -0.575616,-1.02881 z m -0.6492968,-1.42641 c -0.100963,0.41557 -0.31235,0.84012 -0.5835918,1.16135 -0.247431,0.29089 -0.6558113,0.63795 -1.2037982,0.63795 -0.251813,0 -0.6726596,-0.11794 -0.9389594,-0.23025 -0.1022046,0.18083 -0.2960642,0.6211 -0.2960642,0.81878 0,0.2033 0.3430127,0.40996 1.0007322,0.40996 1.4465136,0 2.3130282,-0.65369 2.3130282,-1.751 0,-0.38525 -0.153199,-0.7368 -0.2913468,-1.04679 z M 13.69784,90.955477 c 0.167575,0 0.250464,-0.02719 0.347393,-0.06279 0.416802,-1.134164 2.02213,-3.272092 2.088844,-3.363293 l 0.01584,-0.01886 0.0246,0.0057 c 0.392656,0.06223 1.397768,0.214524 2.240135,0.214524 h 0.01977 c 0.09075,0 0.193407,0 0.260573,-0.06447 0.05346,-0.05538 0.08076,-0.150054 0.08076,-0.286517 0,-0.209694 -0.08861,-0.567306 -0.193971,-0.719494 -0.294828,0.32156 -0.774303,0.465436 -1.53861,0.465436 -0.231258,0 -0.502389,-0.06929 -0.649297,-0.10703 l -0.06099,-0.01359 -0.06851,-0.01797 0.442749,-0.442298 c 0.680857,-0.68041 1.269616,-1.26928 1.269616,-1.660137 0,-0.235639 -0.229461,-0.541813 -0.440389,-0.679624 -0.04572,0.718708 -0.770935,1.675525 -1.475042,2.212957 l -0.0601,0.04527 -0.01237,-0.251026 c -0.0097,-0.171507 -0.02493,-0.429944 -0.02493,-0.70287 0,-1.366208 -0.138261,-1.57242 -0.611223,-1.57242 -0.07278,0 -0.184646,0.02111 -0.253158,0.0474 0.267648,0.328186 0.371653,0.763409 0.371653,1.52592 l -0.0036,0.352334 -0.0045,0.283035 c 0,0.3128 0.0338,0.544395 0.05796,0.730838 l 0.01359,0.105358 -0.07457,0.0097 c -0.22115,0.03111 -0.631776,0.08682 -0.946371,0.08682 -0.674681,0 -1.130121,-0.06144 -1.463136,-0.373788 -0.218455,0.176336 -0.442636,0.481273 -0.442636,0.673894 0,0.28517 0.177683,0.307072 0.408829,0.307072 0.11804,0 0.227775,-0.01708 0.379513,-0.03504 0.290449,-0.04347 0.72702,-0.107941 1.624646,-0.107941 h 0.05615 l -0.01628,0.05571 c -0.228563,0.651544 -0.853711,1.598364 -1.858039,2.817102 0.09221,0.326839 0.180828,0.540125 0.494975,0.540125 z M 5.0394278,87.59825 5.0219058,87.54254 h 0.055705 c 0.8980763,0 1.334984,0.06447 1.6246463,0.107941 0.1521879,0.01797 0.2619204,0.03504 0.3790661,0.03504 0.2315951,0 0.4101761,-0.0219 0.4101761,-0.307071 0,-0.192621 -0.2255296,-0.497558 -0.443084,-0.673893 -0.3317811,0.31235 -0.789355,0.373786 -1.4628002,0.373786 -0.3150452,0 -0.7269074,-0.05571 -0.9471571,-0.08682 l -0.035602,-0.0044 -0.038966,-0.0053 0.012643,-0.105359 C 4.602826,86.690021 4.63483,86.458427 4.63483,86.145627 L 4.63046,85.862591 4.62751,85.510259 c 0,-0.762513 0.1052353,-1.197735 0.3716519,-1.525922 -0.068511,-0.02627 -0.1803779,-0.0474 -0.2527093,-0.0474 -0.4738596,0 -0.6121207,0.206211 -0.6121207,1.572419 0,0.272926 -0.014046,0.531365 -0.024138,0.702871 l -0.013182,0.251811 -0.060096,-0.04605 C 3.3335978,85.880612 2.6075898,84.923794 2.5650227,84.205087 c -0.2123883,0.137811 -0.4422983,0.443984 -0.4422983,0.679622 0,0.390859 0.5892063,0.979729 1.2701765,1.660137 l 0.3922063,0.390971 0.048296,0.05133 -0.1277044,0.03157 c -0.1461224,0.03774 -0.4181513,0.10703 -0.6492971,0.10703 -0.7656562,0 -1.2429967,-0.143877 -1.5387245,-0.465438 -0.1056834,0.152189 -0.1943047,0.509802 -0.1943047,0.719496 0,0.136462 0.027187,0.231145 0.079406,0.286516 0.067952,0.06447 0.1715063,0.06447 0.2623686,0.06447 h 0.018863 c 0.8432654,0 1.848378,-0.1523 2.2414827,-0.214524 l 0.024158,-0.0057 0.01494,0.01886 c 0.0666,0.09119 1.6728296,2.229128 2.0900825,3.363291 0.095241,0.0356 0.178582,0.06279 0.345708,0.06279 0.31628,0 0.4036624,-0.213285 0.4957605,-0.540124 C 5.8914795,89.196647 5.2675653,88.249827 5.0394533,87.598283 Z m -4.3356091,19.17441 c 0,1.59938 1.1613443,2.86517 1.571183,3.22009 0.097375,-0.0247 0.1965529,-0.0483 0.2943801,-0.0674 -0.4347734,-0.53238 -1.2025629,-1.41967 -1.2025629,-2.59898 0,-2.33954 2.4998084,-4.37021 5.3288144,-4.37021 -0.017969,-0.20104 -0.027634,-0.41108 -0.027634,-0.62784 0,-0.34481 0.018416,-0.66603 0.053906,-0.96929 -3.2005462,0.0191 -6.0180971,2.61583 -6.0180971,5.41362 z m 21.4655403,-4.92728 c 1.435056,-2.269677 2.558662,-2.231147 4.25519,-2.231147 -1.404395,1.075407 -2.332684,2.453527 -2.774982,3.158877 l -2.621897,4.1961 c -0.257539,1.29501 -0.92694,2.50689 -1.930818,3.40766 0.337397,0.12805 0.617287,0.26282 0.787557,0.38973 -1.712813,0 -3.410351,0.86932 -4.343919,0.86932 -0.600216,0 -0.986692,-0.35716 -0.986692,-0.83225 0.03941,-0.52789 0.583029,-1.067 1.588592,-1.067 0.227326,0 0.51901,0.0303 0.837986,0.0831 0.545406,-0.75812 0.984111,-1.44325 0.984111,-2.42265 0,-1.83636 -2.196783,-3.26838 -4.415017,-3.26838 -0.124102,0 -0.243836,0.004 -0.368956,0.0146 -0.201831,0.45488 -0.86865,1.21975 -0.86865,2.0902 0,1.45785 0.951201,2.65065 0.951201,4.09727 0,0.89853 -0.437917,1.45448 -0.60684,1.68586 0.273376,0.25159 0.570339,0.56382 0.640984,0.77498 -0.158813,-0.0674 -0.346156,-0.0763 -0.621217,-0.0763 -1.063067,0 -1.928684,0.27629 -2.7731858,0.27629 -0.4817208,0 -0.6116718,-0.14826 -0.6116718,-0.28977 0,-0.0528 0.008,-0.10558 0.02247,-0.1314 -0.180378,0.0707 -0.34975,0.1168 -0.5506831,0.15386 -0.2478808,0.0472 -0.5163149,0.0707 -0.8028326,0.0707 -1.0257777,0 -1.3908041,-0.42904 -1.3908041,-0.79856 0,-0.31224 0.2460828,-0.88168 0.5238408,-1.31522 0.4009671,0.20105 0.8810029,0.33807 1.1012547,0.33807 0.5436075,0 1.0292603,-0.5189 1.2859013,-1.13439 -0.367273,-0.0438 -0.437469,-0.0607 -0.8081116,-0.0607 -0.9994963,0 -1.6791177,0.35828 -1.8186146,0.35828 -0.014046,0 -0.039871,-0.007 -0.039871,-0.0292 0,-0.1404 0.2820245,-0.51104 0.8410193,-0.71546 0.7353318,-0.26843 1.8387187,-0.37962 2.0225797,-0.40995 0,-0.0325 -0.186893,-0.38187 -0.3949018,-0.44701 -0.04426,-0.0157 -0.07896,-0.0169 -0.131184,-0.005 -0.7682388,0.15275 -0.9827625,0.21565 -1.9572122,0.58629 -0.030216,0.0113 -0.047737,-0.007 -0.047737,-0.0382 0,-0.38524 0.9980368,-1.23772 1.8926312,-1.56231 -0.7466749,-0.95466 -1.6808047,-1.92956 -2.1208559,-3.41774 -0.1236543,-0.0102 -0.2442871,-0.0146 -0.3694069,-0.0146 -2.2173346,0 -4.4140031,1.43203 -4.4140031,3.26839 0,0.97939 0.4391528,1.66451 0.9839961,2.42264 0.3198749,-0.0528 0.6098736,-0.0831 0.8375374,-0.0831 1.0055628,0 1.5496185,0.53912 1.5900534,1.067 0,0.4751 -0.3870403,0.83226 -0.9884904,0.83226 -0.9332313,0 -2.6293086,-0.86932 -4.34346945,-0.86932 0.1702705,-0.12692 0.44971035,-0.2617 0.78710685,-0.38974 -1.00297825,-0.90077 -1.67338968,-2.11265 -1.93003122,-3.40765 l -2.62144738,-4.19612 c -0.4412881,-0.70533 -1.3722723,-2.08345 -2.7771161,-3.158867 1.6969757,0 2.8219303,-0.0385 4.257436,2.231147 l 1.34475501,2.15309 c 0.0990621,-0.27967 0.22238608,-0.55147 0.36626237,-0.81765 L -3.0332533,98.90234 c -0.4444326,-0.709044 -1.3662078,-2.076599 -2.775432,-3.158423 1.6948435,0 2.8214821,-0.03955 4.2560893,2.229127 l 2.3021324,3.686426 c 0.172855,-0.18307 0.3531201,-0.36391 0.5452936,-0.53351 l -3.2488423,-5.201328 c -0.4465681,-0.710284 -1.3635126,-2.072561 -2.7771172,-3.155395 1.6969778,0 2.8231663,-0.04077 4.25743698,2.230139 L 2.6930473,100.0693 c 0.2084572,-0.131967 0.4229808,-0.260577 0.6436808,-0.379847 l -3.86478127,-6.185335 c -0.44757725,-0.711631 -1.36452273,-2.071212 -2.77677973,-3.157081 1.697426,0 2.82237958,-0.03818 4.2574369,2.230477 l 3.9797927,6.372228 c 0.2364236,-0.09177 0.4746452,-0.176446 0.7172471,-0.255405 L 1.1523004,91.496026 c -0.4397148,-0.701523 -1.37721369,-2.083904 -2.7750946,-3.155732 1.69753885,0 2.8219303,-0.03818 4.2566502,2.229129 l 4.7944179,7.672618 c 0.048296,-0.0083 0.096592,-0.01583 0.1444383,-0.0255 0.1307361,-0.415904 0.2210374,-0.801484 0.2210374,-1.187626 0,-2.410854 -1.5820782,-4.540471 -3.479539,-6.183537 0.1201744,-0.05391 0.3321176,-0.07064 0.5282202,-0.07064 0.3913079,0 0.6453659,0.01977 0.8230485,0.05133 -0.4413999,-0.998487 -1.3864237,-2.291015 -1.863315,-2.958731 -0.6207686,0.111869 -1.5254714,0.200035 -2.1181608,0.200035 -0.6186342,0 -0.6892816,-0.364128 -0.6892816,-0.687036 0,-0.562927 0.2628188,-1.010392 0.5703391,-1.260069 0.1141109,0.287416 0.3453705,0.671759 1.4913266,0.671759 0.020103,0 0.061437,-0.0027 0.1144514,-0.0061 -0.3355995,-0.372551 -1.3823818,-1.218849 -1.3823818,-1.900605 0,-0.451846 0.4953124,-1.128436 1.1480904,-1.128436 -0.039423,0.144775 -0.034149,0.278992 -0.034149,0.379514 0,0.553269 0.4895843,1.199981 0.9024568,1.650029 -0.011413,-0.135112 -0.00528,-0.121071 -0.00528,-0.276407 0,-1.306905 0.1184883,-1.906672 0.9468217,-1.906672 0.4066942,0 0.6879331,0.222386 0.7839624,0.29 -0.5387779,0.495761 -0.5659577,0.885834 -0.5659577,1.61757 8.984e-4,0.190488 0.00132,0.376481 0.00396,0.63447 0.00173,0.167127 -4.503e-4,0.388725 -0.027187,0.549224 0.2966261,0.04089 0.4168025,0.04089 0.6444664,0.04089 0,0 1.1776302,0.09256 1.4614516,-0.518225 0.3198748,0.293144 0.7835141,0.705903 0.7835141,1.161792 0,0.301905 -0.1425286,0.642782 -0.7492576,0.642782 -0.22991,0 -0.9525488,-0.141291 -1.556245,-0.141291 0.1619589,0.362329 0.8853833,1.41978 1.5114308,2.185774 0.095241,-0.297525 0.2426029,-0.619085 0.5707883,-0.881902 0.045268,0.493177 0.3352611,2.053691 1.1060843,2.965919 0.090749,-0.616052 0.2119397,-1.249512 0.2119397,-2.582475 0,-3.244797 -0.781044,-5.641164 -2.4372495,-6.098739 0.214973,-0.375133 0.6713109,-0.711631 1.1447213,-0.711631 0.6049311,0 0.936262,0.684338 1.2718622,1.329704 0.175436,-0.475994 0.6589558,-1.644749 1.1450576,-1.644749 0.484418,0 0.968723,1.168755 1.143824,1.644749 0.336497,-0.645366 0.666816,-1.329704 1.273209,-1.329704 0.471164,0 0.928737,0.336498 1.144159,0.711631 -1.656207,0.457575 -2.437585,2.853942 -2.437585,6.098739 0,1.332963 0.121071,1.966423 0.210591,2.582475 0.773518,-0.912228 1.062618,-2.472742 1.107432,-2.965919 0.327737,0.262817 0.475993,0.584377 0.572473,0.881902 0.624812,-0.765994 1.347338,-1.823445 1.510533,-2.185774 -0.604034,0 -1.327571,0.141291 -1.557481,0.141291 -0.605831,0 -0.747573,-0.340877 -0.747573,-0.642782 0,-0.455889 0.463302,-0.868648 0.782279,-1.161792 0.283372,0.610772 1.462237,0.518225 1.462237,0.518225 0.228225,0 0.347505,0 0.645028,-0.04089 -0.02729,-0.160499 -0.02897,-0.382097 -0.02808,-0.549224 0.0025,-0.257989 0.0036,-0.443982 0.004,-0.63447 0,-0.731736 -0.02763,-1.121809 -0.565959,-1.61757 0.09693,-0.06761 0.377718,-0.29 0.783963,-0.29 0.828778,0 0.947271,0.599767 0.947271,1.906672 0,0.155332 0.0056,0.141291 -0.0053,0.276407 0.412873,-0.450048 0.902007,-1.09676 0.902007,-1.650029 0,-0.100516 0.0061,-0.234739 -0.0347,-0.379514 0.654238,0 1.149998,0.67659 1.149998,1.128436 0,0.681756 -1.047679,1.528054 -1.384177,1.900605 0.05481,0.0036 0.09345,0.0061 0.115349,0.0061 1.145058,0 1.375866,-0.384343 1.491663,-0.671759 0.305388,0.249677 0.568655,0.697142 0.568655,1.260069 0,0.322908 -0.06851,0.687036 -0.688832,0.687036 -0.592353,0 -1.495707,-0.08817 -2.11861,-0.200035 -0.477005,0.667716 -1.421129,1.960244 -1.862418,2.958731 0.177683,-0.03157 0.43163,-0.05133 0.823499,-0.05133 0.196102,0 0.406695,0.01673 0.528669,0.07064 -1.898471,1.643066 -3.480998,3.772683 -3.480998,6.183537 0,0.386142 0.09177,0.771722 0.2207,1.187626 0.04785,0.0097 0.09828,0.01718 0.145674,0.0255 l 4.79408,-7.672618 c 1.434607,-2.267316 2.56001,-2.229129 4.25564,-2.229129 -1.397319,1.071828 -2.335829,2.454209 -2.773186,3.155732 l -4.499252,7.198311 c 0.243948,0.07897 0.48262,0.16364 0.717809,0.255405 l 3.979792,-6.372228 c 1.435956,-2.268663 2.559562,-2.230477 4.258335,-2.230477 -1.412369,1.085869 -2.329314,2.44545 -2.775881,3.157081 l -3.865307,6.184855 c 0.219353,0.11928 0.433875,0.24788 0.641885,0.379847 l 3.168087,-5.069922 c 1.434607,-2.270909 2.559561,-2.230138 4.255189,-2.230138 -1.411807,1.082833 -2.328751,2.44511 -2.77588,3.155394 l -3.247944,5.201336 c 0.191386,0.16959 0.37345,0.35043 0.544506,0.5335 l 2.302022,-3.686424 c 1.435956,-2.268662 2.55956,-2.229127 4.257099,-2.229127 -1.410572,1.081824 -2.330211,2.449379 -2.775431,3.158423 l -2.674123,4.279008 c 0.142977,0.26619 0.2663,0.53799 0.365026,0.81765 l 1.345652,-2.15308" /><path
       inkscape:connector-curvature="0"
       id="path4832"
       style="fill:#000;fill-opacity:1;fill-rule:nonzero;stroke:none;stroke-width:0.112316"
       d="M 39.849414,111.64941 V 83.602733 h -4.907745 v 28.046677 h 4.907745" /><use
       x="0"
       y="0"
       xlink:href="#path4830"
       id="use4878"
       width="100%"
       height="100%" /></g></svg>
